<svg xmlns="http://www.w3.org/2000/svg" xmlns:xlink="http://www.w3.org/1999/xlink" width="500" zoomAndPan="magnify" viewBox="0 0 375 374.999991" height="500" preserveAspectRatio="xMidYMid meet" version="1.0"><defs><g/><clipPath id="261286a762"><path d="M 69 69 L 306 69 L 306 306 L 69 306 Z M 69 69 " clip-rule="nonzero"/></clipPath><clipPath id="ee3b28f343"><path d="M 97.394531 46.242188 L 328.757812 97.398438 L 277.601562 328.757812 L 46.242188 277.605469 Z M 97.394531 46.242188 " clip-rule="nonzero"/></clipPath><clipPath id="1dc54f26f8"><path d="M 213.074219 71.820312 C 149.1875 57.695312 85.945312 98.035156 71.820312 161.921875 C 57.691406 225.8125 98.035156 289.054688 161.921875 303.179688 C 225.8125 317.308594 289.054688 276.964844 303.179688 213.078125 C 317.304688 149.1875 276.964844 85.945312 213.074219 71.820312 Z M 213.074219 71.820312 " clip-rule="nonzero"/></clipPath><clipPath id="9f255d4cc3"><path d="M 76 74 L 299 74 L 299 301 L 76 301 Z M 76 74 " clip-rule="nonzero"/></clipPath><clipPath id="4a3b977319"><path d="M 302.644531 296.542969 L 80.789062 304.519531 L 72.652344 78.164062 L 294.507812 70.191406 Z M 302.644531 296.542969 " clip-rule="nonzero"/></clipPath><clipPath id="8e32e7ee71"><path d="M 302.644531 296.542969 L 80.789062 304.519531 L 72.652344 78.164062 L 294.507812 70.191406 Z M 302.644531 296.542969 " clip-rule="nonzero"/></clipPath><clipPath id="6392e50f0c"><path d="M 82 82 L 293 82 L 293 293 L 82 293 Z M 82 82 " clip-rule="nonzero"/></clipPath><clipPath id="3b5ab03b73"><path d="M 71.148438 279.058594 L 95.933594 71.140625 L 303.851562 95.925781 L 279.066406 303.84375 Z M 71.148438 279.058594 " clip-rule="nonzero"/></clipPath><clipPath id="698835f623"><path d="M 83.542969 175.097656 C 76.699219 232.511719 117.695312 284.605469 175.109375 291.449219 C 232.523438 298.292969 284.613281 257.296875 291.457031 199.882812 C 298.300781 142.46875 257.308594 90.378906 199.894531 83.535156 C 142.480469 76.691406 90.386719 117.683594 83.542969 175.097656 Z M 83.542969 175.097656 " clip-rule="nonzero"/></clipPath></defs><rect x="-37.5" width="450" fill="#ffffff" y="-37.499999" height="449.999989" fill-opacity="1"/><rect x="-37.5" width="450" fill="#ffffff" y="-37.499999" height="449.999989" fill-opacity="1"/><g clip-path="url(#261286a762)"><g clip-path="url(#ee3b28f343)"><g clip-path="url(#1dc54f26f8)"><path fill="#fdf9f7" d="M 97.394531 46.242188 L 328.757812 97.398438 L 277.601562 328.757812 L 46.242188 277.605469 Z M 97.394531 46.242188 " fill-opacity="1" fill-rule="nonzero"/></g></g></g><g clip-path="url(#9f255d4cc3)"><g clip-path="url(#4a3b977319)"><g clip-path="url(#8e32e7ee71)"><path fill="#0b0019" d="M 298.128906 178.902344 C 299.089844 197.867188 295.035156 215.832031 287.089844 232.953125 C 282.824219 242.136719 277.335938 250.566406 270.839844 258.375 C 260.804688 270.445312 248.882812 280.140625 235.023438 287.457031 C 225 292.75 214.398438 296.519531 203.234375 298.445312 C 197.027344 299.515625 190.730469 300.5625 184.386719 300.230469 C 180.105469 300 175.816406 299.925781 171.527344 299.542969 C 159.558594 298.484375 148.339844 295.058594 137.535156 290.046875 C 129.515625 286.324219 122.214844 281.457031 115.363281 275.875 C 110.839844 272.1875 106.804688 268.039062 103 263.640625 C 101.945312 262.421875 101.816406 260.949219 102.785156 260.179688 C 104.015625 259.207031 105.183594 259.5 106.207031 260.59375 C 108.292969 262.820312 110.324219 265.085938 112.515625 267.214844 C 124.800781 279.171875 139.191406 287.441406 155.691406 292.039062 C 162.136719 293.832031 168.679688 294.996094 175.382812 295.425781 C 178.886719 295.648438 182.402344 295.894531 185.890625 295.890625 C 189.617188 295.890625 193.363281 295.363281 197.078125 294.875 C 204.289062 293.921875 211.359375 292.292969 218.21875 289.859375 C 229.867188 285.726562 240.585938 279.914062 250.285156 272.191406 C 255.902344 267.71875 261.175781 262.898438 265.855469 257.46875 C 274.460938 247.480469 281.203125 236.34375 286.023438 224.058594 C 288.90625 216.714844 290.980469 209.164062 292.292969 201.386719 C 292.824219 198.246094 293.082031 195.082031 293.453125 191.929688 C 294.390625 183.96875 294.179688 175.992188 292.996094 168.152344 C 291.335938 157.203125 288.277344 146.578125 283.382812 136.546875 C 279.554688 128.699219 274.910156 121.390625 269.269531 114.738281 C 262.628906 106.90625 254.992188 100.226562 246.28125 94.738281 C 234.96875 87.613281 222.773438 82.898438 209.613281 80.582031 C 200.882812 79.046875 192.082031 78.417969 183.28125 79.265625 C 167.277344 80.808594 152.167969 85.429688 138.222656 93.535156 C 129.152344 98.808594 120.984375 105.210938 113.636719 112.742188 C 103.285156 123.347656 95.433594 135.523438 89.75 149.140625 C 85.617188 159.046875 83.019531 169.390625 81.921875 180.058594 C 81.402344 185.105469 81.125 190.203125 81.34375 195.289062 C 81.863281 207.355469 83.964844 219.121094 88.386719 230.414062 C 88.664062 231.125 88.992188 231.828125 89.164062 232.5625 C 89.394531 233.527344 89.308594 234.617188 88.222656 234.882812 C 87.214844 235.128906 85.929688 235.792969 85.167969 234.234375 C 83.976562 231.800781 83.070312 229.25 82.269531 226.683594 C 80.261719 220.265625 78.589844 213.753906 77.84375 207.046875 C 77.058594 200.011719 76.5 192.921875 76.921875 185.871094 C 78.167969 165.007812 84.359375 145.65625 95.683594 128.023438 C 100.363281 120.746094 105.757812 114.003906 111.9375 107.960938 C 123.253906 96.894531 136.191406 88.242188 150.972656 82.414062 C 158.035156 79.632812 165.292969 77.574219 172.726562 76.160156 C 180.535156 74.671875 188.492188 74.265625 196.378906 74.558594 C 210.386719 75.082031 223.847656 78.367188 236.59375 84.285156 C 244.980469 88.175781 252.734375 93.097656 259.820312 99.066406 C 277.140625 113.652344 288.546875 131.996094 294.527344 153.753906 C 295.660156 157.863281 296.410156 162.089844 297.1875 166.285156 C 297.945312 170.445312 297.941406 174.683594 298.128906 178.902344 Z M 298.128906 178.902344 " fill-opacity="1" fill-rule="nonzero"/></g></g></g><g clip-path="url(#6392e50f0c)"><g clip-path="url(#3b5ab03b73)"><g clip-path="url(#698835f623)"><path fill="#0b0019" d="M 71.148438 279.058594 L 95.933594 71.140625 L 303.851562 95.925781 L 279.066406 303.84375 Z M 71.148438 279.058594 " fill-opacity="1" fill-rule="nonzero"/></g></g></g><g fill="#ffcc00" fill-opacity="1"><g transform="translate(91.559013, 216.151493)"><g><path d="M 18.1875 -1.703125 C 15.644531 -1.390625 12.898438 -1.171875 9.953125 -1.046875 C 9.304688 -1.003906 8.648438 -0.945312 7.984375 -0.875 C 6.265625 -0.757812 4.859375 -0.992188 3.765625 -1.578125 C 2.671875 -2.160156 1.890625 -3.222656 1.421875 -4.765625 C 1.054688 -6.210938 0.957031 -8.285156 1.125 -10.984375 C 1.289062 -13.679688 1.566406 -16.625 1.953125 -19.8125 C 2.273438 -22.507812 2.535156 -25.128906 2.734375 -27.671875 C 2.929688 -30.222656 2.929688 -32.90625 2.734375 -35.71875 C 1.210938 -34.800781 0.3125 -34.195312 0.03125 -33.90625 C -0.9375 -34.84375 -1.59375 -35.863281 -1.9375 -36.96875 C -2.070312 -37.332031 -2.125 -37.945312 -2.09375 -38.8125 C -2.070312 -39.6875 -1.519531 -40.488281 -0.4375 -41.21875 C 0.707031 -41.914062 2.300781 -42.390625 4.34375 -42.640625 C 6.382812 -42.898438 9.191406 -43.066406 12.765625 -43.140625 C 16.503906 -43.242188 19.285156 -43.410156 21.109375 -43.640625 C 23.023438 -43.878906 24.414062 -44.203125 25.28125 -44.609375 C 25.375 -44.421875 25.519531 -44.039062 25.71875 -43.46875 C 26.082031 -42.195312 25.910156 -40.9375 25.203125 -39.6875 C 24.492188 -38.4375 22.925781 -37.554688 20.5 -37.046875 L 19.6875 -36.921875 C 18.09375 -36.722656 16.207031 -36.6875 14.03125 -36.8125 C 12.707031 -36.84375 10.222656 -36.84375 6.578125 -36.8125 C 9.484375 -35.625 11.0625 -34.800781 11.3125 -34.34375 C 11.425781 -34.09375 11.53125 -33.800781 11.625 -33.46875 C 12.15625 -31.800781 12.164062 -28.484375 11.65625 -23.515625 C 13.894531 -23.816406 15.863281 -24.15625 17.5625 -24.53125 C 19.257812 -24.90625 21.125 -25.378906 23.15625 -25.953125 C 23.300781 -25.742188 23.453125 -25.390625 23.609375 -24.890625 C 23.785156 -24.328125 23.816406 -23.691406 23.703125 -22.984375 C 23.585938 -22.273438 23.191406 -21.753906 22.515625 -21.421875 C 21.328125 -20.859375 20.097656 -20.5 18.828125 -20.34375 L 17.671875 -20.203125 C 16.972656 -20.109375 15.835938 -20.0625 14.265625 -20.0625 L 11.3125 -19.984375 C 10.71875 -15.265625 10.519531 -10.738281 10.71875 -6.40625 C 14.738281 -7.550781 18.257812 -8.742188 21.28125 -9.984375 C 24.351562 -11.160156 26.195312 -11.785156 26.8125 -11.859375 C 26.90625 -11.878906 26.875 -11.957031 26.71875 -12.09375 C 27.007812 -11.5625 27.238281 -10.992188 27.40625 -10.390625 C 27.84375 -8.898438 27.753906 -7.34375 27.140625 -5.71875 C 26.535156 -4.09375 25.054688 -3 22.703125 -2.4375 C 21.273438 -2.144531 19.769531 -1.898438 18.1875 -1.703125 Z M 18.1875 -1.703125 "/></g></g></g><g fill="#ffcc00" fill-opacity="1"><g transform="translate(116.464613, 213.030496)"><g><path d="M 11.65625 -1.734375 C 10.882812 -1.628906 10.078125 -1.617188 9.234375 -1.703125 C 7.671875 -1.878906 6.351562 -2.414062 5.28125 -3.3125 C 4.207031 -4.207031 3.441406 -5.226562 2.984375 -6.375 C 2.816406 -6.757812 2.664062 -7.144531 2.53125 -7.53125 C 1.96875 -9.414062 1.625 -12.265625 1.5 -16.078125 C 1.4375 -20.523438 1 -24.09375 0.1875 -26.78125 C -0.1875 -27.96875 -0.515625 -28.878906 -0.796875 -29.515625 L -1.328125 -29.453125 C 0.765625 -29.710938 2.660156 -29.644531 4.359375 -29.25 C 6.066406 -28.863281 7.242188 -28.253906 7.890625 -27.421875 C 8.378906 -26.710938 8.757812 -25.945312 9.03125 -25.125 C 9.488281 -23.601562 9.628906 -21.335938 9.453125 -18.328125 C 9.398438 -16.722656 9.40625 -15.0625 9.46875 -13.34375 C 9.539062 -11.625 10.015625 -9.316406 10.890625 -6.421875 C 13.648438 -10.617188 15.601562 -14.503906 16.75 -18.078125 C 17.90625 -21.648438 18.625 -24.863281 18.90625 -27.71875 C 19.132812 -30.375 19.054688 -32.332031 18.671875 -33.59375 L 18.578125 -33.859375 C 18.679688 -33.390625 18.519531 -33.128906 18.09375 -33.078125 C 18.1875 -33.085938 18.632812 -33.015625 19.4375 -32.859375 C 20.25 -32.710938 21.285156 -32.414062 22.546875 -31.96875 C 23.816406 -31.53125 24.921875 -30.972656 25.859375 -30.296875 C 26.503906 -29.816406 26.910156 -29.296875 27.078125 -28.734375 C 27.140625 -28.566406 27.179688 -28.414062 27.203125 -28.28125 C 26.847656 -22.289062 25.71875 -17.351562 23.8125 -13.46875 C 20.789062 -7.238281 17.4375 -3.492188 13.75 -2.234375 C 13.070312 -1.984375 12.375 -1.816406 11.65625 -1.734375 Z M 11.65625 -1.734375 "/></g></g></g><g fill="#ffcc00" fill-opacity="1"><g transform="translate(143.056244, 209.698218)"><g><path d="M 14.4375 -1.984375 C 11.53125 -1.617188 8.957031 -1.875 6.71875 -2.75 C 4.476562 -3.625 2.710938 -5.050781 1.421875 -7.03125 C 0.804688 -7.976562 0.328125 -9.019531 -0.015625 -10.15625 C -0.390625 -11.382812 -0.601562 -12.71875 -0.65625 -14.15625 C -0.71875 -16.238281 -0.421875 -18.273438 0.234375 -20.265625 C 0.890625 -22.253906 1.882812 -24.066406 3.21875 -25.703125 C 4.550781 -27.347656 6.207031 -28.722656 8.1875 -29.828125 C 10.175781 -30.929688 12.457031 -31.644531 15.03125 -31.96875 L 15.578125 -32.046875 C 17.796875 -32.316406 19.789062 -32.097656 21.5625 -31.390625 C 23.34375 -30.691406 24.695312 -29.609375 25.625 -28.140625 C 25.9375 -27.640625 26.175781 -27.097656 26.34375 -26.515625 C 26.675781 -25.453125 26.75 -24.289062 26.5625 -23.03125 C 26.175781 -21.144531 25.125 -19.4375 23.40625 -17.90625 C 21.6875 -16.375 19.625 -15.117188 17.21875 -14.140625 C 15.113281 -13.296875 13.054688 -12.75 11.046875 -12.5 L 9.0625 -12.296875 C 10.269531 -10.453125 11.546875 -9.257812 12.890625 -8.71875 C 14.242188 -8.175781 15.8125 -8.015625 17.59375 -8.234375 C 19.78125 -8.554688 21.585938 -9.179688 23.015625 -10.109375 C 24.441406 -11.046875 25.535156 -12.023438 26.296875 -13.046875 C 26.191406 -13.066406 26.175781 -12.953125 26.25 -12.703125 C 26.28125 -12.609375 26.332031 -12.351562 26.40625 -11.9375 C 26.476562 -11.53125 26.316406 -10.8125 25.921875 -9.78125 C 25.523438 -8.75 24.878906 -7.691406 23.984375 -6.609375 C 23.085938 -5.535156 21.9375 -4.582031 20.53125 -3.75 C 19.132812 -2.925781 17.472656 -2.394531 15.546875 -2.15625 Z M 8.3125 -16.171875 C 11.613281 -16.972656 14.160156 -17.910156 15.953125 -18.984375 C 18.554688 -20.546875 19.519531 -22.445312 18.84375 -24.6875 C 18.25 -26.664062 16.820312 -27.515625 14.5625 -27.234375 C 13.019531 -26.953125 11.820312 -26.226562 10.96875 -25.0625 C 10.125 -23.894531 9.507812 -22.59375 9.125 -21.15625 C 8.738281 -19.726562 8.46875 -18.066406 8.3125 -16.171875 Z M 8.3125 -16.171875 "/></g></g></g><g fill="#ffcc00" fill-opacity="1"><g transform="translate(170.926934, 206.205657)"><g><path d="M 24.59375 -3.078125 C 23.832031 -2.984375 22.765625 -3.035156 21.390625 -3.234375 C 20.015625 -3.429688 18.953125 -4.691406 18.203125 -7.015625 C 17.828125 -8.378906 17.679688 -9.828125 17.765625 -11.359375 C 17.847656 -12.898438 18.023438 -14.554688 18.296875 -16.328125 C 18.660156 -18.566406 18.925781 -21.0625 19.09375 -23.8125 C 19.0625 -24.03125 19.023438 -24.226562 18.984375 -24.40625 C 18.734375 -25.144531 18.242188 -25.46875 17.515625 -25.375 C 17.285156 -25.351562 16.898438 -25.203125 16.359375 -24.921875 C 15.828125 -24.648438 15.019531 -23.875 13.9375 -22.59375 C 12.863281 -21.320312 11.84375 -19.753906 10.875 -17.890625 C 9.914062 -16.023438 9.265625 -13.988281 8.921875 -11.78125 C 8.515625 -9.113281 8.648438 -6.6875 9.328125 -4.5 C 9.660156 -3.394531 10.003906 -2.625 10.359375 -2.1875 C 9.078125 -1.457031 7.675781 -0.992188 6.15625 -0.796875 C 5.375 -0.703125 4.296875 -0.753906 2.921875 -0.953125 C 1.546875 -1.148438 0.484375 -2.394531 -0.265625 -4.6875 C -0.660156 -6.101562 -0.78125 -7.878906 -0.625 -10.015625 C -0.476562 -12.160156 -0.242188 -14.457031 0.078125 -16.90625 C 0.421875 -19.539062 0.671875 -22.097656 0.828125 -24.578125 C 0.984375 -27.054688 0.875 -28.929688 0.5 -30.203125 C 2.382812 -30.335938 4.203125 -30.222656 5.953125 -29.859375 C 7.703125 -29.492188 8.800781 -28.953125 9.25 -28.234375 C 9.382812 -27.929688 9.503906 -27.601562 9.609375 -27.25 C 9.898438 -26.320312 10.035156 -24.4375 10.015625 -21.59375 C 12.296875 -24.632812 14.179688 -26.8125 15.671875 -28.125 C 17.171875 -29.445312 18.632812 -30.578125 20.0625 -31.515625 C 21.488281 -32.453125 22.851562 -33.003906 24.15625 -33.171875 C 24.425781 -33.203125 24.984375 -33.222656 25.828125 -33.234375 C 26.671875 -33.242188 27.414062 -32.804688 28.0625 -31.921875 C 28.257812 -31.566406 28.4375 -31.15625 28.59375 -30.6875 C 28.894531 -29.675781 29 -28.257812 28.90625 -26.4375 C 28.820312 -24.625 28.597656 -22.398438 28.234375 -19.765625 C 27.273438 -13.554688 27.203125 -9.132812 28.015625 -6.5 C 28.316406 -5.507812 28.582031 -4.84375 28.8125 -4.5 C 27.53125 -3.75 26.125 -3.273438 24.59375 -3.078125 Z M 24.59375 -3.078125 "/></g></g></g><g fill="#ffcc00" fill-opacity="1"><g transform="translate(201.355742, 202.392531)"><g><path d="M 13.03125 -0.21875 C 10.894531 0.0507812 8.90625 -0.476562 7.0625 -1.8125 C 5.6875 -2.738281 4.679688 -4.191406 4.046875 -6.171875 C 3.609375 -7.753906 3.457031 -9.539062 3.59375 -11.53125 C 3.738281 -13.519531 4.015625 -15.675781 4.421875 -18 C 4.710938 -19.875 5.007812 -22.171875 5.3125 -24.890625 C 3.25 -24.628906 1.5 -24.328125 0.0625 -23.984375 C 0.0625 -23.984375 0.015625 -24.175781 -0.078125 -24.5625 C -0.140625 -24.75 -0.207031 -25.09375 -0.28125 -25.59375 C -0.351562 -26.09375 -0.203125 -26.710938 0.171875 -27.453125 C 0.546875 -28.191406 1.257812 -28.6875 2.3125 -28.9375 L 2.484375 -28.984375 C 3.398438 -29.148438 4.421875 -29.304688 5.546875 -29.453125 C 5.640625 -33.003906 5.300781 -36.257812 4.53125 -39.21875 C 6.507812 -39.363281 8.445312 -39.222656 10.34375 -38.796875 C 12.25 -38.367188 13.359375 -37.8125 13.671875 -37.125 C 14.296875 -35.070312 14.660156 -32.703125 14.765625 -30.015625 C 16.796875 -30.273438 18.554688 -30.632812 20.046875 -31.09375 C 20.234375 -30.894531 20.40625 -30.53125 20.5625 -30 C 21.164062 -28.09375 20.59375 -26.863281 18.84375 -26.3125 C 17.457031 -25.976562 16.003906 -25.71875 14.484375 -25.53125 C 14.265625 -23.6875 14.050781 -22.046875 13.84375 -20.609375 C 13.4375 -18.242188 13.179688 -16.023438 13.078125 -13.953125 C 12.984375 -12.046875 13.175781 -10.289062 13.65625 -8.6875 C 14.175781 -7 15.097656 -6.007812 16.421875 -5.71875 C 17.003906 -5.550781 17.609375 -5.503906 18.234375 -5.578125 C 18.578125 -5.628906 19.085938 -5.769531 19.765625 -6 C 20.441406 -6.226562 20.984375 -6.550781 21.390625 -6.96875 L 21.21875 -6.9375 C 21.082031 -6.925781 20.988281 -6.9375 20.9375 -6.96875 C 20.894531 -7 20.890625 -6.988281 20.921875 -6.9375 C 20.921875 -6.894531 20.929688 -6.785156 20.953125 -6.609375 C 20.984375 -6.429688 20.941406 -6.078125 20.828125 -5.546875 C 20.472656 -4.328125 19.78125 -3.316406 18.75 -2.515625 C 17.101562 -1.253906 15.195312 -0.488281 13.03125 -0.21875 Z M 13.03125 -0.21875 "/></g></g></g><g fill="#ffcc00" fill-opacity="1"><g transform="translate(226.435764, 199.249677)"><g><path d="M 6.3125 -0.828125 C 5.53125 -0.722656 4.445312 -0.769531 3.0625 -0.96875 C 1.675781 -1.164062 0.609375 -2.410156 -0.140625 -4.703125 C -0.546875 -6.117188 -0.671875 -7.894531 -0.515625 -10.03125 C -0.359375 -12.175781 -0.125 -14.472656 0.1875 -16.921875 C 0.5625 -19.566406 0.820312 -22.125 0.96875 -24.59375 C 1.113281 -27.070312 0.992188 -28.945312 0.609375 -30.21875 C 2.492188 -30.351562 4.3125 -30.238281 6.0625 -29.875 C 7.8125 -29.507812 8.910156 -28.960938 9.359375 -28.234375 C 9.515625 -27.941406 9.644531 -27.617188 9.75 -27.265625 C 10.070312 -26.242188 10.203125 -24.875 10.140625 -23.15625 C 10.078125 -21.445312 9.894531 -19.4375 9.59375 -17.125 C 8.757812 -11.238281 8.742188 -7 9.546875 -4.40625 C 9.847656 -3.363281 10.15625 -2.628906 10.46875 -2.203125 C 9.207031 -1.472656 7.820312 -1.015625 6.3125 -0.828125 Z M 6.234375 -34.609375 C 5.335938 -34.503906 4.382812 -34.632812 3.375 -35 C 1.738281 -35.65625 0.71875 -36.628906 0.3125 -37.921875 C 0.0390625 -38.929688 0.15625 -40.066406 0.65625 -41.328125 C 1.320312 -42.753906 2.273438 -43.71875 3.515625 -44.21875 C 3.910156 -44.363281 4.332031 -44.46875 4.78125 -44.53125 C 5.664062 -44.644531 6.617188 -44.519531 7.640625 -44.15625 C 9.242188 -43.539062 10.234375 -42.601562 10.609375 -41.34375 C 10.921875 -40.3125 10.8125 -39.15625 10.28125 -37.875 C 9.625 -36.457031 8.671875 -35.476562 7.421875 -34.9375 C 7.046875 -34.78125 6.648438 -34.671875 6.234375 -34.609375 Z M 6.234375 -34.609375 "/></g></g></g><g fill="#ffcc00" fill-opacity="1"><g transform="translate(235.672898, 198.092144)"><g><path d="M 8.96875 -1.15625 C 8.1875 -1.0625 7.109375 -1.113281 5.734375 -1.3125 C 4.359375 -1.507812 3.28125 -2.753906 2.5 -5.046875 C 2.195312 -6.222656 2.117188 -7.921875 2.265625 -10.140625 C 2.410156 -12.367188 2.660156 -14.921875 3.015625 -17.796875 C 3.253906 -19.691406 3.492188 -21.988281 3.734375 -24.6875 C 1.773438 -24.4375 0.078125 -24.144531 -1.359375 -23.8125 L -1.328125 -23.8125 C -1.328125 -23.8125 -1.378906 -23.988281 -1.484375 -24.34375 C -1.546875 -24.539062 -1.601562 -24.894531 -1.65625 -25.40625 C -1.707031 -25.914062 -1.539062 -26.539062 -1.15625 -27.28125 C -0.78125 -28.019531 -0.078125 -28.515625 0.953125 -28.765625 L 1.28125 -28.84375 C 2.039062 -28.988281 2.941406 -29.125 3.984375 -29.25 C 4.066406 -29.863281 4.097656 -30.316406 4.078125 -30.609375 C 4.128906 -31.828125 4.234375 -33.144531 4.390625 -34.5625 C 4.554688 -35.976562 4.859375 -37.367188 5.296875 -38.734375 C 5.742188 -40.109375 6.398438 -41.390625 7.265625 -42.578125 C 8.128906 -43.773438 9.257812 -44.78125 10.65625 -45.59375 C 12.0625 -46.40625 13.84375 -46.945312 16 -47.21875 C 19.269531 -47.625 21.820312 -47.363281 23.65625 -46.4375 C 25.082031 -45.707031 26.003906 -44.671875 26.421875 -43.328125 C 26.503906 -43.035156 26.578125 -42.726562 26.640625 -42.40625 C 26.765625 -41.21875 26.597656 -40.289062 26.140625 -39.625 C 25.285156 -38.519531 24.03125 -37.863281 22.375 -37.65625 C 21.4375 -37.539062 20.984375 -37.472656 21.015625 -37.453125 C 20.960938 -37.785156 20.847656 -38.234375 20.671875 -38.796875 C 20.617188 -39.015625 20.492188 -39.390625 20.296875 -39.921875 C 20.097656 -40.460938 19.769531 -41.082031 19.3125 -41.78125 C 18.863281 -42.476562 18.28125 -42.78125 17.5625 -42.6875 C 15.757812 -42.457031 14.550781 -40.695312 13.9375 -37.40625 C 13.59375 -35.632812 13.40625 -33.113281 13.375 -29.84375 C 16.21875 -30.195312 18.394531 -30.609375 19.90625 -31.078125 C 20.09375 -30.878906 20.265625 -30.515625 20.421875 -29.984375 C 21.023438 -28.078125 20.453125 -26.847656 18.703125 -26.296875 C 17.304688 -25.941406 15.953125 -25.679688 14.640625 -25.515625 L 13.046875 -25.34375 C 12.835938 -23.351562 12.648438 -21.546875 12.484375 -19.921875 C 11.617188 -12.242188 11.59375 -7.054688 12.40625 -4.359375 C 12.664062 -3.421875 12.898438 -2.8125 13.109375 -2.53125 C 11.847656 -1.800781 10.46875 -1.34375 8.96875 -1.15625 Z M 8.96875 -1.15625 "/></g></g></g><g fill="#ffcc00" fill-opacity="1"><g transform="translate(254.299488, 195.757989)"><g><path d="M 14.71875 11.734375 C 12.445312 12.023438 10.257812 11.835938 8.15625 11.171875 C 6.0625 10.503906 4.378906 9.484375 3.109375 8.109375 C 2.367188 7.265625 1.882812 6.441406 1.65625 5.640625 C 1.5625 5.390625 1.488281 4.972656 1.4375 4.390625 C 1.382812 3.804688 1.328125 3.550781 1.265625 3.625 C 2.441406 4.375 3.660156 4.984375 4.921875 5.453125 C 6.179688 5.929688 7.332031 6.21875 8.375 6.3125 C 9.425781 6.40625 10.429688 6.390625 11.390625 6.265625 C 13.023438 6.066406 14.320312 5.519531 15.28125 4.625 C 16.238281 3.738281 16.957031 2.675781 17.4375 1.4375 C 17.925781 0.195312 18.269531 -1.09375 18.46875 -2.4375 C 18.664062 -3.78125 18.816406 -5.066406 18.921875 -6.296875 L 19.546875 -11.78125 C 17.285156 -7.382812 15.492188 -4.585938 14.171875 -3.390625 C 12.847656 -2.191406 11.378906 -1.488281 9.765625 -1.28125 C 7.710938 -1.03125 5.910156 -1.359375 4.359375 -2.265625 C 2.816406 -3.171875 1.753906 -4.59375 1.171875 -6.53125 C 0.804688 -7.800781 0.695312 -9.210938 0.84375 -10.765625 C 0.988281 -12.316406 1.210938 -13.945312 1.515625 -15.65625 C 1.984375 -18.101562 2.234375 -20.492188 2.265625 -22.828125 C 2.285156 -24.066406 2.128906 -25.238281 1.796875 -26.34375 C 1.472656 -27.445312 1.117188 -28.28125 0.734375 -28.84375 C 1.992188 -29.59375 3.390625 -30.066406 4.921875 -30.265625 C 5.671875 -30.359375 6.726562 -30.300781 8.09375 -30.09375 C 9.457031 -29.894531 10.53125 -28.644531 11.3125 -26.34375 C 11.738281 -24.738281 11.835938 -22.984375 11.609375 -21.078125 C 11.378906 -19.171875 11.0625 -17.359375 10.65625 -15.640625 C 10.4375 -14.515625 10.253906 -13.484375 10.109375 -12.546875 C 9.972656 -11.617188 9.984375 -10.875 10.140625 -10.3125 C 10.398438 -9.46875 11.003906 -9.101562 11.953125 -9.21875 C 13.328125 -9.394531 14.539062 -10.007812 15.59375 -11.0625 C 16.644531 -12.113281 17.515625 -13.414062 18.203125 -14.96875 C 18.890625 -16.519531 19.421875 -18.191406 19.796875 -19.984375 C 20.179688 -21.785156 20.382812 -23.59375 20.40625 -25.40625 C 20.394531 -27.96875 20.101562 -30.175781 19.53125 -32.03125 L 19.734375 -31.53125 C 21.609375 -31.664062 23.410156 -31.539062 25.140625 -31.15625 C 26.878906 -30.769531 27.972656 -30.234375 28.421875 -29.546875 C 28.503906 -29.347656 28.582031 -29.113281 28.65625 -28.84375 C 29.519531 -26.09375 29.328125 -19.96875 28.078125 -10.46875 C 27.765625 -7.570312 27.335938 -4.84375 26.796875 -2.28125 C 26.265625 0.28125 25.535156 2.554688 24.609375 4.546875 C 23.679688 6.546875 22.425781 8.164062 20.84375 9.40625 C 19.269531 10.644531 17.226562 11.421875 14.71875 11.734375 Z M 14.71875 11.734375 "/></g></g></g></svg>