<svg xmlns="http://www.w3.org/2000/svg" xmlns:xlink="http://www.w3.org/1999/xlink" width="518" zoomAndPan="magnify" viewBox="0 0 388.5 89.999999" height="120" preserveAspectRatio="xMidYMid meet" version="1.0"><defs><g/><clipPath id="7a3e25a6d8"><path d="M 8.089844 5.175781 L 388 5.175781 L 388 89.941406 L 8.089844 89.941406 Z M 8.089844 5.175781 " clip-rule="nonzero"/></clipPath><clipPath id="a015335ad7"><path d="M 8.109375 5.175781 L 387.851562 5.175781 L 387.851562 89.816406 L 8.109375 89.816406 Z M 8.109375 5.175781 " clip-rule="nonzero"/></clipPath><clipPath id="64c29899aa"><path d="M 0 0.0585938 L 379.910156 0.0585938 L 379.910156 84.824219 L 0 84.824219 Z M 0 0.0585938 " clip-rule="nonzero"/></clipPath></defs><g clip-path="url(#7a3e25a6d8)"><path fill="#101010" d="M 8.089844 5.175781 L 387.890625 5.175781 L 387.890625 89.941406 L 8.089844 89.941406 Z M 8.089844 5.175781 " fill-opacity="1" fill-rule="nonzero"/></g><g clip-path="url(#a015335ad7)"><path stroke-linecap="butt" transform="matrix(0.749036, 0, 0, 0.749036, 8.108642, 5.174207)" fill="none" stroke-linejoin="miter" d="M 0.000978073 0.00210152 L 507.137253 0.00210152 L 507.137253 113.157975 L 0.000978073 113.157975 Z M 0.000978073 0.00210152 " stroke="#f2bd00" stroke-width="6" stroke-opacity="1" stroke-miterlimit="4"/></g><g clip-path="url(#64c29899aa)"><path fill="#f2bd00" d="M 0 0.0585938 L 379.800781 0.0585938 L 379.800781 84.824219 L 0 84.824219 Z M 0 0.0585938 " fill-opacity="1" fill-rule="nonzero"/></g><g fill="#101010" fill-opacity="1"><g transform="translate(95.837424, 71.757078)"><g><path d="M 18.59375 -1.765625 C 16 -1.429688 13.191406 -1.195312 10.171875 -1.0625 C 9.503906 -1.007812 8.835938 -0.953125 8.171875 -0.890625 C 6.410156 -0.773438 4.96875 -1.015625 3.84375 -1.609375 C 2.71875 -2.210938 1.914062 -3.296875 1.4375 -4.859375 C 1.070312 -6.347656 0.972656 -8.472656 1.140625 -11.234375 C 1.304688 -13.992188 1.59375 -17.007812 2 -20.28125 C 2.332031 -23.039062 2.597656 -25.71875 2.796875 -28.3125 C 2.992188 -30.914062 2.988281 -33.65625 2.78125 -36.53125 C 1.238281 -35.59375 0.320312 -34.976562 0.03125 -34.6875 C -0.976562 -35.644531 -1.65625 -36.6875 -2 -37.8125 C -2.132812 -38.207031 -2.1875 -38.847656 -2.15625 -39.734375 C -2.125 -40.617188 -1.550781 -41.429688 -0.4375 -42.171875 C 0.71875 -42.890625 2.34375 -43.378906 4.4375 -43.640625 C 6.53125 -43.898438 9.398438 -44.066406 13.046875 -44.140625 C 16.878906 -44.234375 19.734375 -44.398438 21.609375 -44.640625 C 23.554688 -44.878906 24.96875 -45.207031 25.84375 -45.625 C 25.945312 -45.425781 26.097656 -45.046875 26.296875 -44.484375 C 26.679688 -43.171875 26.507812 -41.875 25.78125 -40.59375 C 25.050781 -39.3125 23.441406 -38.421875 20.953125 -37.921875 L 20.140625 -37.78125 C 18.503906 -37.582031 16.570312 -37.535156 14.34375 -37.640625 C 13 -37.679688 10.457031 -37.691406 6.71875 -37.671875 C 9.695312 -36.453125 11.316406 -35.601562 11.578125 -35.125 C 11.679688 -34.882812 11.785156 -34.59375 11.890625 -34.25 C 12.429688 -32.539062 12.441406 -29.144531 11.921875 -24.0625 C 14.210938 -24.363281 16.222656 -24.707031 17.953125 -25.09375 C 19.691406 -25.476562 21.601562 -25.960938 23.6875 -26.546875 C 23.84375 -26.335938 24 -25.976562 24.15625 -25.46875 C 24.320312 -24.882812 24.347656 -24.226562 24.234375 -23.5 C 24.128906 -22.769531 23.722656 -22.242188 23.015625 -21.921875 C 21.804688 -21.335938 20.554688 -20.96875 19.265625 -20.8125 L 18.078125 -20.65625 C 17.359375 -20.570312 16.195312 -20.535156 14.59375 -20.546875 L 11.578125 -20.46875 C 10.972656 -15.625 10.765625 -10.976562 10.953125 -6.53125 C 15.078125 -7.71875 18.6875 -8.945312 21.78125 -10.21875 C 24.894531 -11.425781 26.773438 -12.070312 27.421875 -12.15625 C 27.515625 -12.164062 27.484375 -12.238281 27.328125 -12.375 C 27.617188 -11.820312 27.859375 -11.234375 28.046875 -10.609375 C 28.492188 -9.097656 28.398438 -7.507812 27.765625 -5.84375 C 27.140625 -4.1875 25.617188 -3.066406 23.203125 -2.484375 C 21.742188 -2.203125 20.207031 -1.960938 18.59375 -1.765625 Z M 18.59375 -1.765625 "/></g></g></g><g fill="#101010" fill-opacity="1"><g transform="translate(121.320438, 68.563724)"><g><path d="M 11.921875 -1.765625 C 11.128906 -1.660156 10.300781 -1.648438 9.4375 -1.734375 C 7.84375 -1.929688 6.492188 -2.484375 5.390625 -3.390625 C 4.296875 -4.296875 3.515625 -5.332031 3.046875 -6.5 C 2.878906 -6.914062 2.726562 -7.320312 2.59375 -7.71875 C 2.007812 -9.644531 1.65625 -12.550781 1.53125 -16.4375 C 1.46875 -20.988281 1.019531 -24.644531 0.1875 -27.40625 C -0.1875 -28.625 -0.519531 -29.550781 -0.8125 -30.1875 L -1.359375 -30.125 C 0.773438 -30.394531 2.710938 -30.332031 4.453125 -29.9375 C 6.203125 -29.539062 7.410156 -28.914062 8.078125 -28.0625 C 8.578125 -27.320312 8.957031 -26.539062 9.21875 -25.71875 C 9.695312 -24.164062 9.847656 -21.835938 9.671875 -18.734375 C 9.609375 -17.097656 9.609375 -15.398438 9.671875 -13.640625 C 9.742188 -11.890625 10.226562 -9.523438 11.125 -6.546875 C 13.957031 -10.859375 15.960938 -14.835938 17.140625 -18.484375 C 18.316406 -22.140625 19.050781 -25.425781 19.34375 -28.34375 C 19.550781 -31.0625 19.46875 -33.066406 19.09375 -34.359375 L 19 -34.640625 C 19.09375 -34.148438 18.925781 -33.878906 18.5 -33.828125 C 18.601562 -33.835938 19.066406 -33.769531 19.890625 -33.625 C 20.710938 -33.476562 21.769531 -33.175781 23.0625 -32.71875 C 24.363281 -32.269531 25.503906 -31.691406 26.484375 -30.984375 C 27.117188 -30.515625 27.523438 -29.984375 27.703125 -29.390625 C 27.753906 -29.210938 27.789062 -29.050781 27.8125 -28.90625 C 27.445312 -22.789062 26.296875 -17.75 24.359375 -13.78125 C 21.273438 -7.40625 17.84375 -3.570312 14.0625 -2.28125 C 13.363281 -2.03125 12.648438 -1.859375 11.921875 -1.765625 Z M 11.921875 -1.765625 "/></g></g></g><g fill="#101010" fill-opacity="1"><g transform="translate(148.528574, 65.154189)"><g><path d="M 14.765625 -2.03125 C 11.796875 -1.664062 9.164062 -1.925781 6.875 -2.8125 C 4.582031 -3.695312 2.773438 -5.160156 1.453125 -7.203125 C 0.828125 -8.171875 0.335938 -9.234375 -0.015625 -10.390625 C -0.410156 -11.648438 -0.628906 -13.015625 -0.671875 -14.484375 C -0.734375 -16.617188 -0.429688 -18.695312 0.234375 -20.71875 C 0.910156 -22.75 1.929688 -24.609375 3.296875 -26.296875 C 4.660156 -27.984375 6.351562 -29.390625 8.375 -30.515625 C 10.40625 -31.648438 12.738281 -32.382812 15.375 -32.71875 L 15.953125 -32.78125 C 18.203125 -33.0625 20.238281 -32.84375 22.0625 -32.125 C 23.882812 -31.414062 25.265625 -30.296875 26.203125 -28.765625 C 26.523438 -28.265625 26.78125 -27.71875 26.96875 -27.125 C 27.300781 -26.03125 27.375 -24.84375 27.1875 -23.5625 C 26.789062 -21.625 25.710938 -19.867188 23.953125 -18.296875 C 22.191406 -16.734375 20.070312 -15.457031 17.59375 -14.46875 C 15.457031 -13.59375 13.359375 -13.023438 11.296875 -12.765625 L 9.28125 -12.578125 C 10.507812 -10.691406 11.8125 -9.46875 13.1875 -8.90625 C 14.570312 -8.351562 16.175781 -8.1875 18 -8.40625 C 20.238281 -8.75 22.085938 -9.394531 23.546875 -10.34375 C 25.003906 -11.300781 26.125 -12.300781 26.90625 -13.34375 C 26.800781 -13.363281 26.785156 -13.25 26.859375 -13 C 26.890625 -12.894531 26.941406 -12.632812 27.015625 -12.21875 C 27.085938 -11.800781 26.921875 -11.0625 26.515625 -10 C 26.117188 -8.9375 25.460938 -7.851562 24.546875 -6.75 C 23.628906 -5.65625 22.453125 -4.679688 21.015625 -3.828125 C 19.578125 -2.984375 17.875 -2.441406 15.90625 -2.203125 Z M 8.5 -16.515625 C 11.875 -17.359375 14.484375 -18.320312 16.328125 -19.40625 C 18.992188 -21.007812 19.976562 -22.957031 19.28125 -25.25 C 18.6875 -27.289062 17.226562 -28.164062 14.90625 -27.875 C 13.332031 -27.570312 12.109375 -26.820312 11.234375 -25.625 C 10.359375 -24.4375 9.722656 -23.109375 9.328125 -21.640625 C 8.929688 -20.179688 8.65625 -18.472656 8.5 -16.515625 Z M 8.5 -16.515625 "/></g></g></g><g fill="#101010" fill-opacity="1"><g transform="translate(177.045422, 61.580657)"><g><path d="M 25.15625 -3.15625 C 24.382812 -3.050781 23.296875 -3.101562 21.890625 -3.3125 C 20.492188 -3.519531 19.398438 -4.804688 18.609375 -7.171875 C 18.242188 -8.578125 18.101562 -10.0625 18.1875 -11.625 C 18.269531 -13.1875 18.453125 -14.875 18.734375 -16.6875 C 19.097656 -18.988281 19.367188 -21.550781 19.546875 -24.375 C 19.515625 -24.59375 19.476562 -24.789062 19.4375 -24.96875 C 19.1875 -25.71875 18.6875 -26.046875 17.9375 -25.953125 C 17.695312 -25.921875 17.300781 -25.769531 16.75 -25.5 C 16.207031 -25.226562 15.378906 -24.429688 14.265625 -23.109375 C 13.148438 -21.796875 12.101562 -20.191406 11.125 -18.296875 C 10.15625 -16.398438 9.488281 -14.320312 9.125 -12.0625 C 8.71875 -9.320312 8.859375 -6.835938 9.546875 -4.609375 C 9.890625 -3.484375 10.242188 -2.695312 10.609375 -2.25 C 9.285156 -1.488281 7.851562 -1.015625 6.3125 -0.828125 C 5.507812 -0.722656 4.40625 -0.769531 3 -0.96875 C 1.59375 -1.175781 0.503906 -2.457031 -0.265625 -4.8125 C -0.671875 -6.25 -0.789062 -8.0625 -0.625 -10.25 C -0.46875 -12.4375 -0.234375 -14.78125 0.078125 -17.28125 C 0.429688 -20 0.6875 -22.625 0.84375 -25.15625 C 1 -27.6875 0.882812 -29.609375 0.5 -30.921875 C 2.4375 -31.054688 4.300781 -30.929688 6.09375 -30.546875 C 7.882812 -30.171875 9.007812 -29.613281 9.46875 -28.875 C 9.59375 -28.582031 9.710938 -28.25 9.828125 -27.875 C 10.117188 -26.925781 10.265625 -25.003906 10.265625 -22.109375 C 12.585938 -25.210938 14.515625 -27.4375 16.046875 -28.78125 C 17.578125 -30.132812 19.070312 -31.289062 20.53125 -32.25 C 21.988281 -33.21875 23.382812 -33.785156 24.71875 -33.953125 C 24.988281 -33.984375 25.554688 -34.003906 26.421875 -34.015625 C 27.296875 -34.023438 28.0625 -33.578125 28.71875 -32.671875 C 28.925781 -32.304688 29.113281 -31.878906 29.28125 -31.390625 C 29.582031 -30.359375 29.6875 -28.910156 29.59375 -27.046875 C 29.507812 -25.191406 29.273438 -22.921875 28.890625 -20.234375 C 27.921875 -13.859375 27.84375 -9.328125 28.65625 -6.640625 C 28.957031 -5.628906 29.234375 -4.953125 29.484375 -4.609375 C 28.171875 -3.835938 26.726562 -3.351562 25.15625 -3.15625 Z M 25.15625 -3.15625 "/></g></g></g><g fill="#101010" fill-opacity="1"><g transform="translate(208.179695, 57.679126)"><g><path d="M 13.3125 -0.21875 C 11.132812 0.0507812 9.109375 -0.488281 7.234375 -1.84375 C 5.816406 -2.800781 4.785156 -4.289062 4.140625 -6.3125 C 3.691406 -7.9375 3.539062 -9.765625 3.6875 -11.796875 C 3.832031 -13.828125 4.113281 -16.035156 4.53125 -18.421875 C 4.820312 -20.328125 5.117188 -22.671875 5.421875 -25.453125 C 3.304688 -25.191406 1.515625 -24.890625 0.046875 -24.546875 C 0.046875 -24.546875 0 -24.738281 -0.09375 -25.125 C -0.15625 -25.3125 -0.222656 -25.660156 -0.296875 -26.171875 C -0.367188 -26.691406 -0.210938 -27.328125 0.171875 -28.078125 C 0.554688 -28.835938 1.289062 -29.347656 2.375 -29.609375 L 2.53125 -29.65625 C 3.476562 -29.832031 4.523438 -29.992188 5.671875 -30.140625 C 5.765625 -33.773438 5.421875 -37.097656 4.640625 -40.109375 C 6.660156 -40.273438 8.640625 -40.132812 10.578125 -39.6875 C 12.523438 -39.25 13.65625 -38.675781 13.96875 -37.96875 C 14.613281 -35.875 14.988281 -33.457031 15.09375 -30.71875 C 17.164062 -30.976562 18.972656 -31.34375 20.515625 -31.8125 C 20.703125 -31.613281 20.878906 -31.242188 21.046875 -30.703125 C 21.648438 -28.742188 21.066406 -27.484375 19.296875 -26.921875 C 17.859375 -26.585938 16.363281 -26.320312 14.8125 -26.125 C 14.582031 -24.226562 14.367188 -22.546875 14.171875 -21.078125 C 13.753906 -18.660156 13.492188 -16.394531 13.390625 -14.28125 C 13.273438 -12.332031 13.46875 -10.53125 13.96875 -8.875 C 14.5 -7.15625 15.4375 -6.144531 16.78125 -5.84375 C 17.382812 -5.675781 18.003906 -5.632812 18.640625 -5.71875 C 18.992188 -5.757812 19.519531 -5.898438 20.21875 -6.140625 C 20.914062 -6.378906 21.46875 -6.707031 21.875 -7.125 L 21.703125 -7.09375 C 21.566406 -7.082031 21.472656 -7.09375 21.421875 -7.125 C 21.378906 -7.164062 21.375 -7.15625 21.40625 -7.09375 C 21.414062 -7.050781 21.429688 -6.941406 21.453125 -6.765625 C 21.472656 -6.585938 21.425781 -6.222656 21.3125 -5.671875 C 20.945312 -4.429688 20.226562 -3.40625 19.15625 -2.59375 C 17.488281 -1.289062 15.539062 -0.5 13.3125 -0.21875 Z M 13.3125 -0.21875 "/></g></g></g><g fill="#101010" fill-opacity="1"><g transform="translate(233.841176, 54.463408)"><g><path d="M 6.453125 -0.84375 C 5.660156 -0.738281 4.554688 -0.785156 3.140625 -0.984375 C 1.722656 -1.191406 0.628906 -2.472656 -0.140625 -4.828125 C -0.546875 -6.265625 -0.671875 -8.078125 -0.515625 -10.265625 C -0.359375 -12.453125 -0.117188 -14.796875 0.203125 -17.296875 C 0.578125 -20.015625 0.835938 -22.640625 0.984375 -25.171875 C 1.128906 -27.703125 1.007812 -29.625 0.625 -30.9375 C 2.5625 -31.070312 4.425781 -30.945312 6.21875 -30.5625 C 8.007812 -30.1875 9.132812 -29.617188 9.59375 -28.859375 C 9.738281 -28.597656 9.867188 -28.273438 9.984375 -27.890625 C 10.316406 -26.847656 10.453125 -25.453125 10.390625 -23.703125 C 10.328125 -21.953125 10.140625 -19.890625 9.828125 -17.515625 C 8.960938 -11.503906 8.941406 -7.171875 9.765625 -4.515625 C 10.085938 -3.453125 10.40625 -2.703125 10.71875 -2.265625 C 9.425781 -1.503906 8.003906 -1.03125 6.453125 -0.84375 Z M 6.390625 -35.421875 C 5.472656 -35.304688 4.5 -35.441406 3.46875 -35.828125 C 1.78125 -36.492188 0.734375 -37.484375 0.328125 -38.796875 C 0.046875 -39.828125 0.164062 -40.988281 0.6875 -42.28125 C 1.363281 -43.738281 2.332031 -44.726562 3.59375 -45.25 C 4 -45.40625 4.4375 -45.515625 4.90625 -45.578125 C 5.8125 -45.691406 6.78125 -45.554688 7.8125 -45.171875 C 9.457031 -44.554688 10.476562 -43.601562 10.875 -42.3125 C 11.1875 -41.257812 11.066406 -40.070312 10.515625 -38.75 C 9.859375 -37.300781 8.890625 -36.300781 7.609375 -35.75 C 7.222656 -35.59375 6.816406 -35.484375 6.390625 -35.421875 Z M 6.390625 -35.421875 "/></g></g></g><g fill="#101010" fill-opacity="1"><g transform="translate(243.292465, 53.279038)"><g><path d="M 9.15625 -1.171875 C 8.363281 -1.078125 7.265625 -1.128906 5.859375 -1.328125 C 4.453125 -1.535156 3.347656 -2.8125 2.546875 -5.15625 C 2.242188 -6.363281 2.164062 -8.101562 2.3125 -10.375 C 2.457031 -12.65625 2.710938 -15.265625 3.078125 -18.203125 C 3.328125 -20.148438 3.570312 -22.5 3.8125 -25.25 C 1.800781 -25 0.0625 -24.703125 -1.40625 -24.359375 L -1.375 -24.359375 C -1.375 -24.359375 -1.425781 -24.546875 -1.53125 -24.921875 C -1.59375 -25.097656 -1.648438 -25.453125 -1.703125 -25.984375 C -1.765625 -26.515625 -1.597656 -27.15625 -1.203125 -27.90625 C -0.804688 -28.664062 -0.0820312 -29.175781 0.96875 -29.4375 L 1.28125 -29.5 C 2.070312 -29.65625 3.003906 -29.800781 4.078125 -29.9375 C 4.148438 -30.570312 4.179688 -31.03125 4.171875 -31.3125 C 4.210938 -32.5625 4.316406 -33.910156 4.484375 -35.359375 C 4.648438 -36.816406 4.957031 -38.242188 5.40625 -39.640625 C 5.851562 -41.046875 6.519531 -42.351562 7.40625 -43.5625 C 8.300781 -44.769531 9.46875 -45.789062 10.90625 -46.625 C 12.34375 -47.457031 14.160156 -48.015625 16.359375 -48.296875 C 19.703125 -48.710938 22.3125 -48.445312 24.1875 -47.5 C 25.65625 -46.757812 26.609375 -45.703125 27.046875 -44.328125 C 27.117188 -44.035156 27.1875 -43.71875 27.25 -43.375 C 27.382812 -42.164062 27.207031 -41.222656 26.71875 -40.546875 C 25.863281 -39.398438 24.582031 -38.722656 22.875 -38.515625 C 21.925781 -38.390625 21.472656 -38.320312 21.515625 -38.3125 C 21.453125 -38.644531 21.332031 -39.101562 21.15625 -39.6875 C 21.101562 -39.925781 20.96875 -40.316406 20.75 -40.859375 C 20.539062 -41.410156 20.207031 -42.039062 19.75 -42.75 C 19.289062 -43.457031 18.691406 -43.765625 17.953125 -43.671875 C 16.117188 -43.441406 14.890625 -41.640625 14.265625 -38.265625 C 13.910156 -36.460938 13.707031 -33.882812 13.65625 -30.53125 C 16.570312 -30.894531 18.804688 -31.316406 20.359375 -31.796875 C 20.546875 -31.597656 20.722656 -31.222656 20.890625 -30.671875 C 21.503906 -28.722656 20.921875 -27.46875 19.140625 -26.90625 C 17.710938 -26.539062 16.320312 -26.273438 14.96875 -26.109375 L 13.328125 -25.9375 C 13.117188 -23.894531 12.925781 -22.046875 12.75 -20.390625 C 11.863281 -12.523438 11.832031 -7.210938 12.65625 -4.453125 C 12.9375 -3.492188 13.191406 -2.878906 13.421875 -2.609375 C 12.117188 -1.847656 10.695312 -1.367188 9.15625 -1.171875 Z M 9.15625 -1.171875 "/></g></g></g><g fill="#101010" fill-opacity="1"><g transform="translate(262.350896, 50.890768)"><g><path d="M 15.078125 12 C 12.753906 12.289062 10.515625 12.097656 8.359375 11.421875 C 6.210938 10.753906 4.492188 9.71875 3.203125 8.3125 C 2.429688 7.425781 1.929688 6.578125 1.703125 5.765625 C 1.609375 5.515625 1.535156 5.09375 1.484375 4.5 C 1.429688 3.90625 1.367188 3.644531 1.296875 3.71875 C 2.503906 4.476562 3.753906 5.097656 5.046875 5.578125 C 6.347656 6.066406 7.53125 6.359375 8.59375 6.453125 C 9.65625 6.554688 10.675781 6.546875 11.65625 6.421875 C 13.3125 6.210938 14.632812 5.648438 15.625 4.734375 C 16.613281 3.828125 17.351562 2.738281 17.84375 1.46875 C 18.34375 0.207031 18.695312 -1.109375 18.90625 -2.484375 C 19.113281 -3.859375 19.269531 -5.175781 19.375 -6.4375 L 20 -12.046875 C 17.695312 -7.546875 15.863281 -4.679688 14.5 -3.453125 C 13.144531 -2.234375 11.644531 -1.519531 10 -1.3125 C 7.90625 -1.050781 6.066406 -1.382812 4.484375 -2.3125 C 2.898438 -3.238281 1.804688 -4.691406 1.203125 -6.671875 C 0.828125 -7.984375 0.710938 -9.429688 0.859375 -11.015625 C 1.003906 -12.597656 1.238281 -14.265625 1.5625 -16.015625 C 2.039062 -18.515625 2.296875 -20.960938 2.328125 -23.359375 C 2.347656 -24.628906 2.1875 -25.832031 1.84375 -26.96875 C 1.507812 -28.09375 1.144531 -28.941406 0.75 -29.515625 C 2.050781 -30.285156 3.484375 -30.765625 5.046875 -30.953125 C 5.816406 -31.054688 6.898438 -31.003906 8.296875 -30.796875 C 9.691406 -30.585938 10.789062 -29.300781 11.59375 -26.9375 C 12.007812 -25.3125 12.101562 -23.523438 11.875 -21.578125 C 11.644531 -19.628906 11.320312 -17.769531 10.90625 -16 C 10.6875 -14.863281 10.503906 -13.816406 10.359375 -12.859375 C 10.210938 -11.898438 10.21875 -11.125 10.375 -10.53125 C 10.632812 -9.6875 11.25 -9.328125 12.21875 -9.453125 C 13.625 -9.628906 14.867188 -10.253906 15.953125 -11.328125 C 17.035156 -12.398438 17.925781 -13.726562 18.625 -15.3125 C 19.332031 -16.894531 19.875 -18.601562 20.25 -20.4375 C 20.632812 -22.28125 20.84375 -24.132812 20.875 -26 C 20.875 -28.613281 20.582031 -30.867188 20 -32.765625 L 20.1875 -32.25 C 22.113281 -32.382812 23.960938 -32.253906 25.734375 -31.859375 C 27.515625 -31.472656 28.632812 -30.929688 29.09375 -30.234375 C 29.164062 -30.035156 29.242188 -29.789062 29.328125 -29.5 C 30.203125 -26.6875 30.007812 -20.421875 28.75 -10.703125 C 28.414062 -7.742188 27.972656 -4.953125 27.421875 -2.328125 C 26.878906 0.296875 26.128906 2.625 25.171875 4.65625 C 24.222656 6.695312 22.941406 8.347656 21.328125 9.609375 C 19.710938 10.878906 17.628906 11.675781 15.078125 12 Z M 15.078125 12 "/></g></g></g></svg>